<svg width="180" height="180" viewBox="0 0 180 180" fill="none" xmlns="http://www.w3.org/2000/svg">
<circle cx="90" cy="90" r="90" fill="url(#paint0_linear)"/>
<circle cx="92" cy="90" r="79.5" stroke="white"/>
<g clip-path="url(#clip0)">
<path d="M119.993 71.5366C119.666 71.2096 119.212 71.0217 118.75 71.0217C118.288 71.0217 117.835 71.2096 117.508 71.5366C117.181 71.8635 116.993 72.3169 116.993 72.779C116.993 73.2411 117.181 73.6945 117.508 74.0213C117.835 74.348 118.288 74.5363 118.75 74.5363C119.212 74.5363 119.666 74.3482 119.993 74.0213C120.319 73.6947 120.508 73.2411 120.508 72.779C120.508 72.3169 120.319 71.8634 119.993 71.5366Z" fill="#0C0B0A" fill-opacity="0.8"/>
<path d="M118.75 67.595C119.721 67.595 120.508 66.8081 120.508 65.8378V50.2861C120.508 47.3792 118.143 45.0144 115.236 45.0144H51.2718C48.365 45.0142 46 47.3792 46 50.2861V129.714C46 132.621 48.365 134.986 51.2718 134.986H115.236C118.143 134.986 120.508 132.621 120.508 129.714V121.821C120.508 120.851 119.721 120.064 118.75 120.064C117.78 120.064 116.993 120.851 116.993 121.821V129.714C116.993 130.683 116.205 131.471 115.236 131.471H51.2718C50.3029 131.471 49.5146 130.683 49.5146 129.714V50.2861C49.5146 49.3172 50.3029 48.5288 51.2718 48.5288H115.236C116.205 48.5288 116.993 49.3172 116.993 50.2861V65.8378C116.993 66.8081 117.78 67.595 118.75 67.595Z" fill="#0C0B0A" fill-opacity="0.8"/>
<path d="M134.456 115.691L125.391 106.626C126.952 103.84 127.844 100.63 127.844 97.2158C127.844 86.5635 119.177 77.8972 108.525 77.8972C108.419 77.8972 108.313 77.8995 108.207 77.9012V68.2322C108.207 67.2619 107.42 66.4749 106.45 66.4749H96.1795V56.9859C96.1795 56.0156 95.3925 55.2286 94.4222 55.2286H82.3949C81.4246 55.2286 80.6376 56.0156 80.6376 56.9859V67.5294H70.3674C69.3971 67.5294 68.6102 68.3164 68.6102 69.2867V78.7759H60.0581C59.0878 78.7759 58.3008 79.5629 58.3008 80.5332V90.0224C58.3008 90.9927 59.0878 91.7796 60.0581 91.7796H89.986C89.4792 93.5049 89.2061 95.329 89.2061 97.216C89.2061 107.868 97.8722 116.535 108.525 116.535C111.939 116.535 115.149 115.643 117.935 114.082L126.941 123.087C128.002 124.148 129.381 124.683 130.754 124.683C132.035 124.683 133.312 124.217 134.319 123.279C135.377 122.294 135.973 120.956 135.999 119.513C136.025 118.069 135.477 116.712 134.456 115.691ZM68.61 88.2651H61.8153V82.2905H68.6102V88.2651H68.61ZM80.6374 88.2651H72.1245V80.5332V71.044H80.6374V88.2651ZM84.1518 88.2651V69.2867V58.7432H92.6647V68.2324V74.5948V76.9965C92.6647 77.9668 93.4517 78.7537 94.422 78.7537C95.3923 78.7537 96.1793 77.9668 96.1793 76.9965V74.5948V69.9897H104.692V78.2797C98.9188 79.4463 94.0711 83.1956 91.4093 88.2651H84.1518ZM108.525 113.02C99.8104 113.02 92.7204 105.93 92.7204 97.2158C92.7204 88.5015 99.8102 81.4116 108.525 81.4116C117.239 81.4116 124.329 88.5013 124.329 97.2158C124.329 105.93 117.239 113.02 108.525 113.02ZM131.923 120.707C131.24 121.344 130.12 121.296 129.426 120.602L120.879 112.055C121.781 111.303 122.613 110.472 123.365 109.57L131.971 118.176C132.311 118.516 132.494 118.969 132.485 119.45C132.476 119.932 132.277 120.378 131.923 120.707Z" fill="#0C0B0A" fill-opacity="0.8"/>
<path d="M113.1 88.2307C112.255 87.7538 111.183 88.0516 110.705 88.8971L101.257 105.634C100.78 106.479 101.078 107.551 101.923 108.028C102.196 108.182 102.493 108.256 102.785 108.256C103.399 108.256 103.994 107.934 104.317 107.362L113.766 90.625C114.243 89.7795 113.945 88.7078 113.1 88.2307Z" fill="#0C0B0A" fill-opacity="0.8"/>
<path d="M114.665 98.7162C111.758 98.7162 109.393 101.081 109.393 103.988C109.393 106.895 111.758 109.26 114.665 109.26C117.572 109.26 119.936 106.895 119.936 103.988C119.937 101.081 117.572 98.7162 114.665 98.7162ZM114.665 105.745C113.696 105.745 112.908 104.957 112.908 103.988C112.908 103.019 113.696 102.231 114.665 102.231C115.634 102.231 116.422 103.019 116.422 103.988C116.422 104.957 115.634 105.745 114.665 105.745Z" fill="#0C0B0A" fill-opacity="0.8"/>
<path d="M102.385 85.1721C99.4778 85.1721 97.1129 87.5371 97.1129 90.444C97.1129 93.3509 99.4778 95.7158 102.385 95.7158C105.292 95.7158 107.656 93.3509 107.656 90.444C107.656 87.5371 105.291 85.1721 102.385 85.1721ZM102.385 92.2011C101.416 92.2011 100.627 91.4127 100.627 90.4438C100.627 89.4749 101.416 88.6865 102.385 88.6865C103.354 88.6865 104.142 89.4749 104.142 90.4438C104.142 91.4127 103.354 92.2011 102.385 92.2011Z" fill="#0C0B0A" fill-opacity="0.8"/>
<path d="M105.899 121.982H57.2465C56.2762 121.982 55.4892 122.769 55.4892 123.739C55.4892 124.71 56.2762 125.497 57.2465 125.497H105.899C106.869 125.497 107.656 124.71 107.656 123.739C107.656 122.769 106.869 121.982 105.899 121.982Z" fill="#0C0B0A" fill-opacity="0.8"/>
<path d="M83.2538 112.141H72.358C71.3877 112.141 70.6007 112.928 70.6007 113.899C70.6007 114.869 71.3877 115.656 72.358 115.656H83.2538C84.2241 115.656 85.011 114.869 85.011 113.899C85.011 112.928 84.2241 112.141 83.2538 112.141Z" fill="#0C0B0A" fill-opacity="0.8"/>
<path d="M90.94 112.656C90.6132 112.33 90.1597 112.141 89.6975 112.141C89.2354 112.141 88.7821 112.329 88.4551 112.656C88.1266 112.983 87.9402 113.437 87.9402 113.899C87.9402 114.361 88.1266 114.814 88.4551 115.141C88.7819 115.468 89.2338 115.656 89.6975 115.656C90.1597 115.656 90.613 115.468 90.94 115.141C91.2666 114.814 91.4548 114.361 91.4548 113.899C91.4548 113.436 91.2669 112.983 90.94 112.656Z" fill="#0C0B0A" fill-opacity="0.8"/>
<path d="M83.2538 102.301H72.358C71.3877 102.301 70.6007 103.088 70.6007 104.058C70.6007 105.028 71.3877 105.815 72.358 105.815H83.2538C84.2241 105.815 85.011 105.028 85.011 104.058C85.011 103.088 84.2241 102.301 83.2538 102.301Z" fill="#0C0B0A" fill-opacity="0.8"/>
<path d="M61.1124 106.78C59.9496 106.78 59.0038 105.994 59.0038 105.028C59.0038 104.063 59.9496 103.277 61.1124 103.277C62.2752 103.277 63.2211 104.063 63.2211 105.028C63.2211 105.999 64.0081 106.786 64.9784 106.786C65.9487 106.786 66.7357 105.999 66.7357 105.028C66.7357 102.699 65.1113 100.719 62.868 100.027C62.8498 99.0723 62.0715 98.3032 61.1124 98.3032C60.1534 98.3032 59.3748 99.0723 59.3569 100.027C57.1136 100.719 55.4892 102.699 55.4892 105.028C55.4892 107.932 58.0117 110.294 61.1124 110.294C62.2752 110.294 63.2211 111.08 63.2211 112.046C63.2211 113.011 62.2752 113.797 61.1124 113.797C59.9496 113.797 59.0038 113.011 59.0038 112.046C59.0038 111.075 58.2168 110.288 57.2465 110.288C56.2762 110.288 55.4892 111.075 55.4892 112.046C55.4892 114.375 57.1127 116.354 59.3551 117.047V117.148C59.3551 118.118 60.1421 118.905 61.1124 118.905C62.0827 118.905 62.8697 118.118 62.8697 117.148V117.047C65.1121 116.354 66.7357 114.375 66.7357 112.046C66.7357 109.142 64.213 106.78 61.1124 106.78Z" fill="#0C0B0A" fill-opacity="0.8"/>
</g>
<defs>
<linearGradient id="paint0_linear" x1="90" y1="0" x2="90" y2="180" gradientUnits="userSpaceOnUse">
<stop stop-color="#FFFBEB"/>
<stop offset="1" stop-color="#F3EFDC"/>
</linearGradient>
<clipPath id="clip0">
<rect width="90" height="90" fill="white" transform="translate(45 45)"/>
</clipPath>
</defs>
</svg>
