<svg width="180" height="180" viewBox="0 0 180 180" fill="none" xmlns="http://www.w3.org/2000/svg">
<circle cx="90" cy="90" r="90" fill="url(#paint0_linear)"/>
<circle cx="92" cy="90" r="79.5" stroke="white"/>
<path d="M68.5532 114.369H62.3253C61.5972 114.369 61.007 114.959 61.007 115.687C61.007 116.415 61.5972 117.005 62.3253 117.005H68.5532C69.2813 117.005 69.8716 116.415 69.8716 115.687C69.8716 114.959 69.2813 114.369 68.5532 114.369Z" fill="#0C0B0A" fill-opacity="0.8"/>
<path d="M92.4414 84.6132H93.1697C93.8978 84.6132 94.4881 84.0229 94.4881 83.2948C94.4881 82.5667 93.8978 81.9764 93.1697 81.9764H92.4414C91.7134 81.9764 91.1231 82.5667 91.1231 83.2948C91.1231 84.0229 91.7134 84.6132 92.4414 84.6132Z" fill="#0C0B0A" fill-opacity="0.8"/>
<path d="M85.6443 84.6132H86.3726C87.1007 84.6132 87.6909 84.0229 87.6909 83.2948C87.6909 82.5667 87.1007 81.9764 86.3726 81.9764H85.6443C84.9162 81.9764 84.326 82.5667 84.326 83.2948C84.326 84.0229 84.9162 84.6132 85.6443 84.6132Z" fill="#0C0B0A" fill-opacity="0.8"/>
<path d="M78.8472 84.6132H79.5755C80.3036 84.6132 80.8938 84.0229 80.8938 83.2948C80.8938 82.5667 80.3036 81.9764 79.5755 81.9764H78.8472C78.1191 81.9764 77.5289 82.5667 77.5289 83.2948C77.5289 84.0229 78.1191 84.6132 78.8472 84.6132Z" fill="#0C0B0A" fill-opacity="0.8"/>
<path d="M72.0501 84.6132H72.7783C73.5064 84.6132 74.0967 84.0229 74.0967 83.2948C74.0967 82.5667 73.5064 81.9764 72.7783 81.9764H72.0501C71.322 81.9764 70.7317 82.5667 70.7317 83.2948C70.7317 84.0229 71.322 84.6132 72.0501 84.6132Z" fill="#0C0B0A" fill-opacity="0.8"/>
<path d="M65.2531 84.6132H65.9814C66.7095 84.6132 67.2998 84.0229 67.2998 83.2948C67.2998 82.5667 66.7095 81.9764 65.9814 81.9764H65.2531C64.5251 81.9764 63.9348 82.5667 63.9348 83.2948C63.9348 84.0229 64.5251 84.6132 65.2531 84.6132Z" fill="#0C0B0A" fill-opacity="0.8"/>
<path d="M60.5027 83.2948C60.5027 82.5667 59.9124 81.9764 59.1843 81.9764H58.4561C57.728 81.9764 57.1377 82.5667 57.1377 83.2948C57.1377 84.0229 57.728 84.6132 58.4561 84.6132H59.1843C59.9124 84.6132 60.5027 84.0229 60.5027 83.2948Z" fill="#0C0B0A" fill-opacity="0.8"/>
<path d="M133.524 53.791C131.556 50.3822 128.031 48.347 124.095 48.347C120.159 48.347 116.634 50.3822 114.666 53.791C113.48 55.8445 113.01 58.1381 113.253 60.3826C107.946 57.4147 101.834 55.7195 95.3339 55.7195C80.6254 55.7195 67.9038 64.3852 62.0035 76.8786H58.324C57.8046 76.8786 57.3319 76.5721 57.1203 76.0976L53.8235 68.7127C53.4705 67.922 52.6829 67.4112 51.817 67.4112H47.1973C45.9856 67.4112 45 68.3968 45 69.6085V85.2368C45 89.8457 48.7496 93.5951 53.3582 93.5951H54.9095L49.5443 96.6978C48.8115 97.1218 48.4664 97.956 48.6858 98.7739C48.9053 99.5917 49.6216 100.141 50.4684 100.141H59.2856C59.5074 101.196 59.7767 102.234 60.0866 103.255H53.4375C52.2258 103.255 51.2402 104.24 51.2402 105.452V129.455C51.2402 130.667 52.2258 131.653 53.4375 131.653H67.3242C68.0523 131.653 68.6426 131.062 68.6426 130.334C68.6426 129.606 68.0523 129.016 67.3242 129.016H53.877V105.891H60.7219V109.731C60.7219 110.749 61.5498 111.577 62.5676 111.577H68.3111C69.3288 111.577 70.1568 110.749 70.1568 109.731V105.891H77.0017V129.016H73.4766C72.7485 129.016 72.1582 129.606 72.1582 130.334C72.1582 131.062 72.7485 131.653 73.4766 131.653H77.4411C78.6528 131.653 79.6384 130.667 79.6384 129.455V125.873C84.403 128.127 89.7226 129.393 95.3341 129.393C101.945 129.393 108.429 127.621 114.086 124.269C119.577 121.015 124.155 116.368 127.325 110.83C127.687 110.198 127.468 109.392 126.836 109.03C126.204 108.669 125.398 108.888 125.037 109.52C124.558 110.356 124.042 111.167 123.496 111.957H116.109C117.522 108.511 118.542 104.742 119.134 100.781H128.537C128.256 101.916 127.918 103.038 127.52 104.143C127.274 104.828 127.629 105.583 128.314 105.83C128.999 106.076 129.754 105.721 130.001 105.036C131.441 101.036 132.171 96.8377 132.171 92.5562C132.171 86.1513 130.526 80.1239 127.639 74.8714L133.524 64.6785C135.492 61.2701 135.492 57.1999 133.524 53.791ZM114.393 64.1746C114.479 64.344 114.569 64.5124 114.666 64.6791L118.037 70.5192H114.918C114.262 69.1922 113.544 67.9229 112.764 66.7227C111.194 64.306 109.439 62.261 107.547 60.6131C109.973 61.544 112.268 62.7427 114.393 64.1746ZM113.46 83.7659C112.344 82.6288 110.795 81.9765 109.211 81.9765H106.448C106.076 81.0997 105.558 80.3058 104.931 79.6189C104.713 77.365 104.438 75.2015 104.109 73.1556H113.243C114.75 76.5578 115.835 80.335 116.464 84.3316H113.947C113.798 84.1352 113.636 83.9457 113.46 83.7659ZM110.554 68.1595C111.046 68.917 111.512 69.705 111.952 70.5189H103.642C103.411 69.3351 103.162 68.1996 102.892 67.1212C102.031 63.6773 101.034 61.0087 99.9102 59.1205C103.888 60.4663 107.564 63.5602 110.554 68.1595ZM102.063 77.5687C101.038 77.1233 99.9153 76.8788 98.7529 76.8788H88.6896C88.8495 75.5974 89.0299 74.3549 89.2292 73.1558H101.437C101.673 74.5697 101.883 76.0416 102.063 77.5687ZM95.3341 58.3562C96.0042 58.3562 96.8502 59.1376 97.6556 60.4999C98.6342 62.1555 99.5604 64.6664 100.334 67.7607C100.554 68.6408 100.759 69.5644 100.953 70.5189H89.7156C89.9088 69.5642 90.1143 68.641 90.3343 67.7607C91.1078 64.6662 92.034 62.1555 93.0127 60.4999C93.8178 59.1376 94.664 58.3562 95.3341 58.3562ZM90.758 59.1207C89.6337 61.0089 88.6372 63.6775 87.7762 67.1214C87.5065 68.2001 87.2562 69.3351 87.0258 70.519H78.7201C79.1596 69.7059 79.6224 68.9164 80.1142 68.1597C83.1039 63.5602 86.7799 60.4663 90.758 59.1207ZM86.5593 73.1558C86.3657 74.3583 86.1901 75.6002 86.0347 76.8788H75.9922C76.417 75.5952 76.8978 74.3535 77.4278 73.1558H86.5593ZM83.1261 60.6085C81.232 62.2571 79.4758 64.3038 77.9036 66.7225C77.1235 67.9226 76.4058 69.1917 75.7503 70.519H69.2038C72.9037 66.138 77.6821 62.6961 83.1261 60.6085ZM67.1868 73.1558H74.5625C74.0695 74.3597 73.623 75.6019 73.227 76.8788H64.9477C65.6163 75.5877 66.3648 74.3446 67.1868 73.1558ZM53.3582 90.9584C50.2035 90.9584 47.6367 88.3918 47.6367 85.2368V70.0479H51.532L54.7126 77.1724C55.3479 78.5957 56.7656 79.5153 58.324 79.5153H98.753C100.655 79.5153 102.401 80.4714 103.451 81.9763H99.2385C98.5105 81.9763 97.9202 82.5666 97.9202 83.2946C97.9202 84.0227 98.5105 84.613 99.2385 84.613H109.212C110.092 84.613 110.955 84.9772 111.578 85.6125C112.178 86.2246 112.501 87.0184 112.485 87.8474C112.452 89.5626 111.029 90.9582 109.313 90.9582H98.7891C98.061 90.9582 97.4707 91.5484 97.4707 92.2765C97.4707 93.0046 98.061 93.5949 98.7891 93.5949H102.891C102.88 95.1312 102.844 96.6498 102.785 98.1443H87.8827C87.8235 96.6498 87.7878 95.131 87.7767 93.5949H92.6367C93.3648 93.5949 93.9551 93.0046 93.9551 92.2765C93.9551 91.5484 93.3648 90.9582 92.6367 90.9582H85.9064L89.9643 89.4245C90.8119 89.1042 91.2902 88.2578 91.1275 87.3664C90.9647 86.4751 90.218 85.8524 89.3118 85.8524H69.3592C68.6649 85.8524 67.9802 86.0361 67.3792 86.3836L59.4689 90.9584H53.3582ZM102.655 100.781C102.417 104.769 102.007 108.543 101.439 111.957H89.2285C88.6605 108.543 88.2506 104.769 88.0131 100.781H102.655ZM61.2032 97.4763C61.1534 97.4951 61.1012 97.5046 61.048 97.5046H53.4161L68.6992 88.6663C68.8994 88.5505 69.1277 88.4893 69.3591 88.4893H84.9814L61.2032 97.4763ZM71.2095 98.1445H66.8929L71.0729 96.5645C71.1105 97.094 71.1571 97.6203 71.2095 98.1445ZM67.52 108.94H63.3586V105.892H67.52V108.94ZM62.8536 103.255C62.5859 102.443 62.3447 101.619 62.1371 100.781H71.5372C71.6618 101.615 71.8045 102.44 71.9668 103.255H62.8536ZM73.6509 95.5904L78.93 93.5951H85.14C85.1509 95.13 85.1861 96.6486 85.2442 98.1445H73.8559C73.7677 97.3007 73.6991 96.4489 73.6509 95.5904ZM77.4411 103.255H74.6554C74.4843 102.441 74.3321 101.616 74.2006 100.781H85.3727C85.6048 104.75 86.0045 108.521 86.5582 111.957H79.6386V105.452C79.6384 104.241 78.6526 103.255 77.4411 103.255ZM79.6384 122.933V120.812C80.7355 122.205 81.9028 123.437 83.1277 124.504C81.9306 124.045 80.7667 123.519 79.6384 122.933ZM80.1144 116.953C79.9529 116.705 79.7943 116.453 79.6384 116.198V114.594H87.0256C87.2562 115.778 87.5065 116.913 87.7764 117.992C88.6373 121.435 89.6339 124.104 90.7581 125.992C86.7799 124.647 83.1039 121.553 80.1144 116.953ZM95.3341 126.757C94.664 126.757 93.818 125.975 93.0125 124.613C92.034 122.957 91.1078 120.447 90.3342 117.352C90.1139 116.471 89.9072 115.55 89.7137 114.594H100.954C100.761 115.55 100.554 116.471 100.334 117.352C99.5602 120.447 98.634 122.957 97.6553 124.613C96.8502 125.975 96.0042 126.757 95.3341 126.757ZM99.9102 125.992C101.034 124.104 102.031 121.436 102.892 117.992C103.162 116.913 103.412 115.778 103.643 114.594H111.952C111.512 115.408 111.046 116.196 110.554 116.953C107.564 121.553 103.888 124.647 99.9102 125.992ZM121.481 114.594C119.009 117.523 116.056 120.037 112.742 122.001C111.076 122.988 109.332 123.826 107.533 124.513C109.43 122.862 111.19 120.813 112.764 118.391C113.544 117.191 114.262 115.921 114.918 114.594H121.481V114.594ZM113.244 111.957H104.11C104.663 108.521 105.063 104.75 105.295 100.781H116.468C115.839 104.779 114.75 108.555 113.244 111.957ZM116.812 98.1445H105.424C105.482 96.6486 105.517 95.1298 105.528 93.5951H109.313C112.456 93.5951 115.061 91.0392 115.121 87.8975C115.127 87.5839 115.106 87.2734 115.061 86.9683H116.81C117.001 88.7984 117.102 90.6646 117.102 92.5564C117.103 94.448 117.004 96.3148 116.812 98.1445ZM129.078 98.1445H119.462C119.645 96.3111 119.739 94.4446 119.739 92.5564C119.739 90.668 119.643 88.8019 119.46 86.9683H129.073C129.374 88.7873 129.534 90.6532 129.534 92.5564C129.534 94.4406 129.38 96.3068 129.078 98.1445ZM128.529 84.3317H119.131C118.539 80.3714 117.521 76.6012 116.109 73.1558H119.56L122.192 77.7148C122.589 78.4028 123.301 78.8134 124.095 78.8134C124.889 78.8134 125.601 78.4028 125.998 77.7148L126.074 77.5832C127.118 79.718 127.944 81.9777 128.529 84.3317ZM123.714 76.3965C123.714 76.3961 123.715 76.3959 123.715 76.3956L123.714 76.3965C123.714 76.3965 123.714 76.3965 123.714 76.3965ZM131.24 63.3605L124.095 75.7373L116.949 63.3605C115.458 60.7772 115.458 57.6926 116.949 55.1094C118.441 52.5261 121.112 50.9838 124.095 50.9838C127.078 50.9838 129.749 52.5261 131.24 55.1094C132.732 57.6928 132.732 60.7772 131.24 63.3605Z" fill="#0C0B0A" fill-opacity="0.8"/>
<path d="M124.095 54.8695C121.478 54.8695 119.349 56.9987 119.349 59.6158C119.349 62.2328 121.478 64.3621 124.095 64.3621C126.712 64.3621 128.841 62.2328 128.841 59.6158C128.841 56.9987 126.712 54.8695 124.095 54.8695ZM124.095 61.7253C122.932 61.7253 121.985 60.7789 121.985 59.6158C121.985 58.4526 122.932 57.5062 124.095 57.5062C125.258 57.5062 126.204 58.4526 126.204 59.6158C126.204 60.7789 125.258 61.7253 124.095 61.7253Z" fill="#0C0B0A" fill-opacity="0.8"/>
<defs>
<linearGradient id="paint0_linear" x1="90" y1="0" x2="90" y2="180" gradientUnits="userSpaceOnUse">
<stop stop-color="#FFFBEB"/>
<stop offset="1" stop-color="#F3EFDC"/>
</linearGradient>
</defs>
</svg>
