<svg width="24" height="33" viewBox="0 0 24 33" fill="none" xmlns="http://www.w3.org/2000/svg">
<path d="M11.5892 0.750488C5.19888 0.750488 0 5.94937 0 12.3396C0 20.2701 10.3712 31.9126 10.8128 32.4043C11.2275 32.8663 11.9516 32.8655 12.3656 32.4043C12.8072 31.9126 23.1784 20.2701 23.1784 12.3396C23.1783 5.94937 17.9795 0.750488 11.5892 0.750488ZM11.5892 18.1704C8.37407 18.1704 5.75844 15.5548 5.75844 12.3396C5.75844 9.1245 8.37414 6.50887 11.5892 6.50887C14.8043 6.50887 17.4199 9.12456 17.4199 12.3397C17.4199 15.5548 14.8043 18.1704 11.5892 18.1704Z" fill="#0C0B0A" fill-opacity="0.8"/>
</svg>
