<svg width="180" height="180" viewBox="0 0 180 180" fill="none" xmlns="http://www.w3.org/2000/svg">
<circle cx="90" cy="90" r="90" fill="url(#paint0_linear)"/>
<circle cx="92" cy="90" r="79.5" stroke="white"/>
<g clip-path="url(#clip0)">
<g clip-path="url(#clip1)">
<path d="M70.3931 98.3967C70.9444 98.8723 71.7769 98.8108 72.2526 98.2596L73.5356 96.7725V102.373C73.5356 103.101 74.1259 103.692 74.8539 103.692C75.582 103.692 76.1723 103.101 76.1723 102.373V96.7725L77.4553 98.2596C77.716 98.5619 78.0841 98.7168 78.4541 98.7168C78.7591 98.7168 79.0657 98.6115 79.3147 98.3967C79.8662 97.921 79.9273 97.0887 79.4519 96.5373L75.8522 92.3649C75.6017 92.0745 75.2373 91.9077 74.8539 91.9077C74.4706 91.9077 74.1062 92.0745 73.8557 92.3649L70.256 96.5373C69.7805 97.0887 69.8417 97.9212 70.3931 98.3967Z" fill="#0C0B0A" fill-opacity="0.8"/>
<path d="M80.0757 107.003C80.0757 106.275 79.4854 105.685 78.7574 105.685H70.9504C70.2223 105.685 69.632 106.275 69.632 107.003C69.632 107.731 70.2223 108.321 70.9504 108.321H78.7572C79.4854 108.321 80.0757 107.731 80.0757 107.003Z" fill="#0C0B0A" fill-opacity="0.8"/>
<path d="M102.685 98.3967C103.237 98.8723 104.069 98.8108 104.545 98.2596L105.828 96.7725V102.373C105.828 103.101 106.418 103.692 107.146 103.692C107.874 103.692 108.465 103.101 108.465 102.373V96.7725L109.748 98.2596C110.008 98.5619 110.376 98.7168 110.746 98.7168C111.051 98.7168 111.358 98.6115 111.607 98.3967C112.158 97.921 112.22 97.0887 111.744 96.5373L108.144 92.3649C107.894 92.0745 107.53 91.9077 107.146 91.9077C106.763 91.9077 106.398 92.0745 106.148 92.3649L102.548 96.5373C102.073 97.0887 102.134 97.9212 102.685 98.3967Z" fill="#0C0B0A" fill-opacity="0.8"/>
<path d="M103.243 108.321H111.049C111.777 108.321 112.368 107.731 112.368 107.003C112.368 106.275 111.777 105.685 111.049 105.685H103.243C102.515 105.685 101.924 106.275 101.924 107.003C101.924 107.731 102.515 108.321 103.243 108.321Z" fill="#0C0B0A" fill-opacity="0.8"/>
<path d="M107.582 74.536H101.125C100.397 74.536 99.807 75.1263 99.807 75.8544C99.807 76.5825 100.397 77.1727 101.125 77.1727H107.582C108.31 77.1727 108.9 76.5825 108.9 75.8544C108.9 75.1263 108.31 74.536 107.582 74.536Z" fill="#0C0B0A" fill-opacity="0.8"/>
<path d="M107.582 70.2362H101.125C100.397 70.2362 99.807 70.8265 99.807 71.5546C99.807 72.2827 100.397 72.8729 101.125 72.8729H107.582C108.31 72.8729 108.9 72.2827 108.9 71.5546C108.9 70.8265 108.31 70.2362 107.582 70.2362Z" fill="#0C0B0A" fill-opacity="0.8"/>
<path d="M76.1574 66.1046C76.7086 66.5803 77.5411 66.5188 78.0168 65.9675L79.2998 64.4804V70.0813C79.2998 70.8094 79.8901 71.3997 80.6182 71.3997C81.3463 71.3997 81.9365 70.8094 81.9365 70.0813V64.4804L83.2196 65.9675C83.4802 66.2698 83.8483 66.4247 84.2184 66.4247C84.5233 66.4247 84.8299 66.3194 85.079 66.1046C85.6304 65.629 85.6916 64.7966 85.2161 64.2452L81.6164 60.0727C81.3659 59.7823 81.0016 59.6155 80.6182 59.6155C80.2348 59.6155 79.8704 59.7823 79.6199 60.0727L76.0203 64.2452C75.5446 64.7965 75.606 65.629 76.1574 66.1046Z" fill="#0C0B0A" fill-opacity="0.8"/>
<path d="M84.5214 73.3923H76.7146C75.9865 73.3923 75.3962 73.9826 75.3962 74.7107C75.3962 75.4388 75.9865 76.0291 76.7146 76.0291H84.5214C85.2495 76.0291 85.8398 75.4388 85.8398 74.7107C85.8398 73.9826 85.2495 73.3923 84.5214 73.3923Z" fill="#0C0B0A" fill-opacity="0.8"/>
<path d="M134.154 119.921C135.172 119.921 136 119.093 136 118.075V114.143C136 113.125 135.172 112.297 134.154 112.297H124.611V81.851C124.611 80.8332 123.783 80.0053 122.765 80.0053H119.026V69.2578C119.026 68.5297 118.435 67.9395 117.707 67.9395C116.979 67.9395 116.389 68.5297 116.389 69.2578V80.0053H92.3184V55.9345H99.5113V60.0544C99.5113 61.0327 100.307 61.8286 101.285 61.8286H107.422C108.4 61.8286 109.196 61.0327 109.196 60.0544V55.9345H116.389V63.1055C116.389 63.8336 116.979 64.4238 117.707 64.4238C118.435 64.4238 119.026 63.8336 119.026 63.1055V55.1435C119.026 54.1257 118.198 53.2978 117.18 53.2978H98.0826V49.5587C98.0826 48.5409 97.2546 47.713 96.2369 47.713H64.9991C63.9814 47.713 63.1534 48.5409 63.1534 49.5587V80.0053H59.2351C58.2173 80.0053 57.3894 80.8332 57.3894 81.851V112.298H47.8457C46.8279 112.298 46 113.125 46 114.143V118.075C46 119.093 46.8279 119.921 47.8457 119.921H52.2068V124.664H47.8457C46.8279 124.664 46 125.492 46 126.51V130.442C46 131.459 46.8279 132.287 47.8457 132.287H112.27C112.998 132.287 113.588 131.697 113.588 130.969C113.588 130.241 112.998 129.651 112.27 129.651H48.6367V127.301H133.363V129.651H118.422C117.694 129.651 117.104 130.241 117.104 130.969C117.104 131.697 117.694 132.287 118.422 132.287H134.154C135.172 132.287 136 131.459 136 130.442V126.51C136 125.492 135.172 124.664 134.154 124.664H132.253V119.921H134.154V119.921ZM102.148 55.9345H106.559V59.1919H102.148V55.9345ZM104.204 82.642H110.088V87.1318H104.204V82.642ZM101.567 82.642V87.8992C101.567 88.93 102.406 89.7687 103.436 89.7687H110.856C111.887 89.7687 112.725 88.93 112.725 87.8992V82.642H121.974V112.298H92.3184V82.642H101.567ZM77.6756 50.3497H83.5604V54.8397H77.6756V50.3497ZM65.7902 50.3497H75.0387V55.607C75.0387 56.6378 75.8774 57.4764 76.9081 57.4764H84.3275C85.3583 57.4764 86.197 56.6378 86.197 55.607V50.3497H95.4457V53.2978H91.5273C90.5096 53.2978 89.6816 54.1257 89.6816 55.1435V80.0053H65.7902V50.3497ZM77.7964 82.642V87.1318H71.9116V82.642H77.7964ZM66.0257 124.664H54.8436V119.921H66.0257V124.664ZM80.0787 124.664H68.6624V119.921H80.0787V124.664ZM101.744 124.664H82.7154V119.921H101.744V124.664H101.744ZM115.797 124.664H104.381V119.921H115.797V124.664ZM129.616 124.664H118.434V119.921H129.616V124.664ZM48.6367 117.284V114.934H70.082C70.8101 114.934 71.4004 114.344 71.4004 113.616C71.4004 112.888 70.8101 112.297 70.082 112.297H60.0261V82.642H69.2748V87.8992C69.2748 88.93 70.1135 89.7687 71.1443 89.7687H78.5637C79.5944 89.7687 80.4331 88.93 80.4331 87.8992V82.642H89.6816V112.298H76.2344C75.5063 112.298 74.916 112.888 74.916 113.616C74.916 114.344 75.5063 114.934 76.2344 114.934H133.363V117.284H48.6367V117.284Z" fill="#0C0B0A" fill-opacity="0.8"/>
</g>
</g>
<defs>
<linearGradient id="paint0_linear" x1="90" y1="0" x2="90" y2="180" gradientUnits="userSpaceOnUse">
<stop stop-color="#FFFBEB"/>
<stop offset="1" stop-color="#F3EFDC"/>
</linearGradient>
<clipPath id="clip0">
<rect width="90" height="90" fill="white" transform="translate(45 45)"/>
</clipPath>
<clipPath id="clip1">
<rect width="90" height="90" fill="white" transform="translate(46 45)"/>
</clipPath>
</defs>
</svg>
