<svg width="32" height="33" viewBox="0 0 32 33" fill="none" xmlns="http://www.w3.org/2000/svg">
<path d="M24.3282 21.9191C23.2827 20.887 21.9776 20.887 20.9388 21.9191C20.1464 22.7049 19.354 23.4906 18.5749 24.2897C18.3618 24.5094 18.182 24.5561 17.9223 24.4096C17.4096 24.1299 16.8635 23.9035 16.3708 23.5972C14.0735 22.1522 12.149 20.2944 10.4444 18.2035C9.59868 17.1647 8.84622 16.0526 8.32017 14.8008C8.21363 14.5477 8.23361 14.3813 8.44003 14.1748C9.23244 13.4091 10.0049 12.6233 10.784 11.8376C11.8694 10.7455 11.8694 9.467 10.7773 8.36828C10.158 7.74235 9.53875 7.12973 8.91947 6.50379C8.28022 5.86454 7.64762 5.21863 7.00171 4.58603C5.95626 3.56722 4.65112 3.56722 3.61233 4.59269C2.81327 5.37844 2.04749 6.18417 1.23511 6.9566C0.482654 7.6691 0.103097 8.54141 0.0231904 9.56023C-0.103329 11.2183 0.302864 12.7831 0.875529 14.308C2.04749 17.4643 3.83208 20.2677 5.99622 22.8381C8.91947 26.314 12.4087 29.0641 16.4906 31.0485C18.3285 31.9408 20.2329 32.6266 22.3039 32.7398C23.7289 32.8197 24.9674 32.4602 25.9596 31.3481C26.6388 30.589 27.4046 29.8965 28.1237 29.1707C29.1891 28.0919 29.1958 26.7868 28.137 25.7214C26.8718 24.4495 25.6 23.1843 24.3282 21.9191Z" fill="#0C0B0A" fill-opacity="0.8"/>
<path d="M23.0563 16.612L25.5135 16.1925C25.1272 13.9351 24.0618 11.8909 22.4437 10.2661C20.7324 8.55475 18.5682 7.47601 16.1844 7.14307L15.8381 9.61352C17.6826 9.87321 19.3606 10.7056 20.6858 12.0307C21.9376 13.2826 22.7567 14.8674 23.0563 16.612Z" fill="#0C0B0A" fill-opacity="0.8"/>
<path d="M26.8985 5.93111C24.0618 3.09442 20.4727 1.30318 16.5106 0.750488L16.1644 3.22094C19.587 3.70038 22.6901 5.2519 25.1405 7.69571C27.4645 10.0197 28.9894 12.9562 29.5421 16.1858L31.9992 15.7663C31.3533 12.024 29.5887 8.62796 26.8985 5.93111Z" fill="#0C0B0A" fill-opacity="0.8"/>
</svg>
