<svg width="32" height="26" viewBox="0 0 32 26" fill="none" xmlns="http://www.w3.org/2000/svg">
<path d="M29.1426 25.3218C29.8619 25.3218 30.4852 25.0842 31.0151 24.6153L21.949 15.5488C21.7314 15.7046 21.5206 15.856 21.3214 16.0001C20.643 16.4999 20.0923 16.89 19.6695 17.1695C19.2467 17.4497 18.6842 17.7352 17.982 18.0268C17.2794 18.3186 16.6248 18.4641 16.0176 18.4641H15.9998H15.982C15.3747 18.4641 14.7201 18.3187 14.0176 18.0268C13.315 17.7352 12.7525 17.4497 12.3301 17.1695C11.9073 16.89 11.357 16.5 10.6782 16.0001C10.489 15.8614 10.2792 15.7092 10.0524 15.5464L0.984528 24.6153C1.51432 25.0842 2.138 25.3218 2.85725 25.3218H29.1426Z" fill="#0C0B0A" fill-opacity="0.8"/>
<path d="M1.80376 9.83941C1.12536 9.38712 0.523752 8.86912 0 8.28564V22.0795L7.99083 14.0887C6.39221 12.9726 4.33247 11.5578 1.80376 9.83941Z" fill="#0C0B0A" fill-opacity="0.8"/>
<path d="M30.2143 9.83941C27.782 11.4857 25.7148 12.9029 24.0124 14.0919L32 22.0799V8.28564C31.4879 8.85739 30.8927 9.37504 30.2143 9.83941Z" fill="#0C0B0A" fill-opacity="0.8"/>
<path d="M30.0544 0.178711H2.94768C2.002 0.178711 1.27495 0.488372 0.76563 1.10706C0.255887 1.72603 0.00143433 2.50013 0.00143433 3.42847C0.00143433 4.17834 0.339106 4.99084 1.01415 5.8662C1.6892 6.74121 2.4075 7.42851 3.1687 7.92844C3.58599 8.21434 4.84442 9.06268 6.94396 10.4732C8.07734 11.2348 9.06298 11.8986 9.90998 12.4715C10.6319 12.9592 11.2546 13.3817 11.7686 13.7322C11.8276 13.7724 11.9204 13.8368 12.0436 13.9222C12.1763 14.0146 12.3443 14.1319 12.5514 14.277C12.9504 14.5568 13.2818 14.7829 13.5458 14.9557C13.8094 15.1286 14.1288 15.3216 14.5035 15.536C14.8779 15.7501 15.2311 15.9111 15.5625 16.0182C15.894 16.1252 16.2009 16.1789 16.4832 16.1789H16.5015H16.5199C16.8021 16.1789 17.1091 16.1252 17.4406 16.0182C17.772 15.9111 18.1248 15.7504 18.4995 15.536C18.8739 15.3216 19.1928 15.1282 19.4573 14.9557C19.7213 14.7829 20.0527 14.5568 20.4517 14.277C20.6585 14.1319 20.8264 14.0145 20.9592 13.9225C21.0824 13.8367 21.1751 13.7727 21.2345 13.7322C21.635 13.462 22.259 13.0413 23.0981 12.4764C24.6248 11.4478 26.8732 9.9338 29.8528 7.92844C30.7489 7.32149 31.4976 6.58905 32.0993 5.73217C32.7 4.87528 33.0011 3.97645 33.0011 3.03596C33.0011 2.25019 32.7091 1.57782 32.1265 1.01782C31.5432 0.45851 30.8524 0.178711 30.0544 0.178711Z" fill="#0C0B0A" fill-opacity="0.8"/>
</svg>
