<svg width="128" height="21" viewBox="0 0 128 21" fill="none" xmlns="http://www.w3.org/2000/svg">
<path d="M116.877 1.46353C117.027 1.00287 117.679 1.00287 117.828 1.46353L119.499 6.60499C119.566 6.811 119.758 6.95048 119.975 6.95048H125.381C125.865 6.95048 126.066 7.57028 125.674 7.85499L121.301 11.0326C121.126 11.1599 121.052 11.3856 121.119 11.5916L122.79 16.7331C122.939 17.1937 122.412 17.5768 122.02 17.2921L117.647 14.1145C117.472 13.9872 117.234 13.9872 117.059 14.1145L112.685 17.2921C112.294 17.5768 111.766 17.1937 111.916 16.7331L113.587 11.5916C113.653 11.3856 113.58 11.1599 113.405 11.0326L109.031 7.85498C108.639 7.57028 108.841 6.95048 109.325 6.95048H114.731C114.948 6.95048 115.14 6.811 115.207 6.60499L116.877 1.46353Z" fill="#FFD83B"/>
<path d="M63.2303 1.46353C63.38 1.00287 64.0317 1.00287 64.1813 1.46353L65.8519 6.60499C65.9188 6.811 66.1108 6.95048 66.3274 6.95048H71.7335C72.2178 6.95048 72.4192 7.57028 72.0274 7.85499L67.6538 11.0326C67.4785 11.1599 67.4052 11.3856 67.4722 11.5916L69.1427 16.7331C69.2924 17.1937 68.7651 17.5768 68.3733 17.2921L63.9997 14.1145C63.8245 13.9872 63.5872 13.9872 63.4119 14.1145L59.0383 17.2921C58.6465 17.5768 58.1192 17.1937 58.2689 16.7331L59.9395 11.5916C60.0064 11.3856 59.9331 11.1599 59.7578 11.0326L55.3843 7.85498C54.9924 7.57028 55.1938 6.95048 55.6781 6.95048H61.0842C61.3008 6.95048 61.4928 6.811 61.5597 6.60499L63.2303 1.46353Z" fill="#FFD83B"/>
<path d="M90.0538 1.46353C90.2035 1.00287 90.8552 1.00287 91.0049 1.46353L92.6754 6.60499C92.7424 6.811 92.9344 6.95048 93.151 6.95048H98.557C99.0414 6.95048 99.2428 7.57028 98.8509 7.85499L94.4773 11.0326C94.3021 11.1599 94.2288 11.3856 94.2957 11.5916L95.9663 16.7331C96.1159 17.1937 95.5887 17.5768 95.1968 17.2921L90.8233 14.1145C90.648 13.9872 90.4107 13.9872 90.2355 14.1145L85.8619 17.2921C85.47 17.5768 84.9428 17.1937 85.0925 16.7331L86.763 11.5916C86.83 11.3856 86.7566 11.1599 86.5814 11.0326L82.2078 7.85498C81.8159 7.57028 82.0173 6.95048 82.5017 6.95048H87.9077C88.1244 6.95048 88.3163 6.811 88.3833 6.60499L90.0538 1.46353Z" fill="#FFD83B"/>
<path d="M36.4068 1.46353C36.5564 1.00287 37.2081 1.00287 37.3578 1.46353L39.0284 6.60499C39.0953 6.811 39.2873 6.95048 39.5039 6.95048H44.91C45.3943 6.95048 45.5957 7.57028 45.2038 7.85499L40.8303 11.0326C40.655 11.1599 40.5817 11.3856 40.6486 11.5916L42.3192 16.7331C42.4689 17.1937 41.9416 17.5768 41.5498 17.2921L37.1762 14.1145C37.0009 13.9872 36.7636 13.9872 36.5884 14.1145L32.2148 17.2921C31.8229 17.5768 31.2957 17.1937 31.4454 16.7331L33.1159 11.5916C33.1829 11.3856 33.1095 11.1599 32.9343 11.0326L28.5607 7.85498C28.1689 7.57028 28.3702 6.95048 28.8546 6.95048H34.2607C34.4773 6.95048 34.6693 6.811 34.7362 6.60499L36.4068 1.46353Z" fill="#FFD83B"/>
<path d="M9.5833 1.46401C9.73297 1.00336 10.3847 1.00336 10.5344 1.46401L12.2049 6.60547C12.2719 6.81148 12.4638 6.95096 12.6804 6.95096H18.0865C18.5709 6.95096 18.7722 7.57077 18.3804 7.85547L14.0068 11.0331C13.8316 11.1604 13.7582 11.3861 13.8252 11.5921L15.4957 16.7335C15.6454 17.1942 15.1182 17.5773 14.7263 17.2926L10.3527 14.115C10.1775 13.9876 9.94018 13.9876 9.76493 14.115L5.39134 17.2926C4.99949 17.5773 4.47225 17.1942 4.62192 16.7335L6.29249 11.5921C6.35942 11.3861 6.28609 11.1604 6.11085 11.0331L1.73726 7.85547C1.34541 7.57077 1.54679 6.95096 2.03116 6.95096H7.43721C7.65382 6.95096 7.8458 6.81148 7.91273 6.60547L9.5833 1.46401Z" fill="#FFD83B"/>
</svg>
